#!OML:ASF F:\VICON\USERDATA\INSTALL\rory3\rory3.ASF
:FULLY-SPECIFIED
:DEGREES
651
root -0.837385 17.8111 0.677459 -1.75315 21.8266 2.06906
lowerback 10.7437 -6.58227 -10.2082
upperback -0.495652 -9.89947 2.94852
thorax -4.26024 -4.66095 10.0842
lowerneck 5.74794 -23.5988 -15.2156
upperneck 21.1451 -38.5346 20.5515
head 13.5856 -17.922 3.87727
rclavicle 7.81596e-014 -9.14409e-015
rhumerus -35.1829 37.9562 -95.7523
rradius 94.075
rwrist 0.766864
rhand -16.9222 8.49292
rfingers 7.12502
rthumb 9.31037 -21.2815
lclavicle 7.81596e-014 -9.14409e-015
lhumerus -37.4495 -29.9944 102.559
lradius 90.2932
lwrist -0.717287
lhand -16.5696 35.9595
lfingers 7.12502
lthumb 9.65065 65.7184
rfemur -21.8374 7.65337 17.0088
rtibia 31.139
rfoot -2.77513 1.89578
rtoes 7.0396
lfemur 10.269 0.764444 -21.8748
ltibia 18.345
lfoot -10.9685 -2.05106
ltoes -19.0494
652
root -0.883085 17.8168 0.549218 -1.59631 22.3001 2.1815
lowerback 11.1042 -6.72716 -10.4379
upperback -0.569718 -10.1634 2.92509
thorax -4.44373 -4.76875 10.2676
lowerneck 5.73252 -23.6051 -15.1683
upperneck 21.2797 -38.5853 20.5422
head 13.6468 -17.9328 3.85378
rclavicle 6.52262e-014 2.50469e-014
rhumerus -34.7945 38.2138 -95.8394
rradius 93.6905
rwrist 0.778051
rhand -17.0534 8.40715
rfingers 7.12502
rthumb 9.18386 -21.3729
lclavicle 6.52262e-014 2.50469e-014
lhumerus -37.5231 -30.3726 102.483
lradius 90.3657
lwrist 0.220504
lhand -17.7568 35.2031
lfingers 7.12502
lthumb 8.50505 65.0119
rfemur -22.245 7.25467 16.6698
rtibia 30.8859
rfoot -2.35998 1.97788
rtoes 8.76867
lfemur 10.0115 0.571883 -21.9958
ltibia 17.5734
lfoot -10.9026 -2.22448
ltoes -18.355
653
root -0.908822 17.8202 0.455581 -1.47344 21.9259 2.38983
lowerback 10.841 -6.62018 -10.653
upperback -0.460974 -10.0216 2.81038
thorax -4.20001 -4.71775 10.1977
lowerneck 5.77409 -23.5969 -15.1594
upperneck 21.2086 -38.6215 20.7333
head 13.6715 -17.9461 3.90771
rclavicle -2.26739e-014 1.66979e-014
rhumerus -34.6745 38.0817 -95.9897
rradius 93.587
rwrist 1.04685
rhand -17.0823 8.20992
rfingers 7.12502
rthumb 9.15597 -21.5713
lclavicle -2.26739e-014 1.66979e-014
lhumerus -37.3635 -30.5959 102.131
lradius 90.3671
lwrist 0.18894
lhand -17.2327 34.8555
lfingers 7.12502
lthumb 9.01084 64.643
rfemur -22.5544 7.11673 16.3903
rtibia 30.5978
rfoot -1.97877 2.60463
rtoes 11.2166
lfemur 9.94676 1.27121 -22.1278
ltibia 17.0023
lfoot -11.1835 -2.38248
ltoes -17.8759
654
root -0.938528 17.8179 0.352574 -1.43283 21.7647 2.37966
lowerback 10.7108 -6.58103 -10.6736
upperback -0.389879 -9.95552 2.78898
thorax -4.06748 -4.69824 10.1534
lowerneck 5.88566 -23.5984 -15.2387
upperneck 21.1214 -38.6638 20.8966
head 13.6895 -17.9759 3.96588
rclavicle 1.44616e-014 9.93923e-015
rhumerus -35.1376 37.4169 -96.3054
rradius 93.9128
rwrist 1.48068
rhand -16.46 8.51271
rfingers 7.12502
rthumb 9.75634 -21.2413
lclavicle 1.44616e-014 9.93923e-015
lhumerus -37.1253 -30.7096 101.762
lradius 90.2996
lwrist -0.375006
lhand -16.7366 35.3423
lfingers 7.12502
lthumb 9.48947 65.1086
rfemur -22.7887 6.84618 16.3264
rtibia 30.2805
rfoot -1.89231 3.19105
rtoes 12.1617
lfemur 9.73481 1.57186 -22.0929
ltibia 16.6275
lfoot -11.4022 -2.42919
ltoes -17.2054
655
root -0.97164 17.8155 0.243877 -1.42578 21.6393 2.17925
lowerback 10.6743 -6.53139 -10.5342
upperback -0.380183 -9.86475 2.8475
thorax -4.07085 -4.65625 10.1284
lowerneck 5.86808 -23.6574 -15.3317
upperneck 21.2507 -38.7919 20.8733
head 13.7933 -18.0261 3.92121
rclavicle 7.1811e-015 -1.63003e-014
rhumerus -34.9963 37.873 -96.3634
rradius 93.6615
rwrist 1.11045
rhand -16.4043 8.76996
rfingers 7.12502
rthumb 9.81008 -20.9815
lclavicle 7.1811e-015 -1.63003e-014
lhumerus -37.0907 -30.892 101.695
lradius 90.2612
lwrist -0.226156
lhand -17.1266 35.5517
lfingers 7.12502
lthumb 9.1132 65.3349
rfemur -23.0319 6.67934 16.4277
rtibia 30.0367
rfoot -2.36623 3.69268
rtoes 12.4957
lfemur 9.40977 1.81278 -21.8701
ltibia 16.306
lfoot -11.4606 -2.57227
ltoes -16.1624
656
root -1.00428 17.8162 0.140416 -1.40229 21.5787 2.12715
lowerback 10.6519 -6.48038 -10.5255
upperback -0.37069 -9.7933 2.8374
thorax -4.0687 -4.62138 10.1042
lowerneck 5.85071 -23.7437 -15.236
upperneck 21.4093 -38.8933 20.6695
head 13.8078 -18.0657 3.8203
rclavicle -8.88071e-014 3.57812e-014
rhumerus -35.0163 37.8722 -96.5806
rradius 93.5137
rwrist 1.1118
rhand -16.4084 8.57447
rfingers 7.12502
rthumb 9.80618 -21.1772
lclavicle -8.88071e-014 3.57812e-014
lhumerus -37.273 -31.1992 101.803
lradius 90.2534
lwrist 0.483004
lhand -17.6585 35.2632
lfingers 7.12502
lthumb 8.59991 65.068
rfemur -23.1692 6.46774 16.395
rtibia 29.8449
rfoot -3.27605 4.18761
rtoes 12.1116
lfemur 8.99135 1.94465 -21.8059
ltibia 16.3078
lfoot -11.5927 -2.74532
ltoes -14.8598
657
root -1.04024 17.8183 0.0381251 -1.41717 21.4936 2.09966
lowerback 10.7107 -6.41243 -10.5587
upperback -0.364686 -9.71344 2.82081
thorax -4.11192 -4.57755 10.109
lowerneck 5.75372 -23.8073 -15.0315
upperneck 21.5945 -38.9083 20.3359
head 13.7651 -18.0622 3.6888
rclavicle -4.74226e-014 -2.38542e-015
rhumerus -35.3263 37.5735 -96.8629
rradius 93.6257
rwrist 1.39715
rhand -16.46 8.28521
rfingers 7.12502
rthumb 9.75635 -21.4688
lclavicle -4.74226e-014 -2.38542e-015
lhumerus -37.3714 -31.361 101.709
lradius 90.2385
lwrist 0.545012
lhand -17.2821 35.2137
lfingers 7.12502
lthumb 8.96316 65.0033
rfemur -23.2638 6.17926 16.4068
rtibia 29.7816
rfoot -4.44233 4.60091
rtoes 9.40044
lfemur 8.58472 2.08664 -21.7606
ltibia 16.4358
lfoot -11.7905 -2.82659
ltoes -14.0858
658
root -1.07501 17.8236 -0.0675656 -1.47317 21.4206 1.94696
lowerback 10.8064 -6.36872 -10.38
upperback -0.388143 -9.64382 2.81096
thorax -4.23762 -4.53557 10.0141
lowerneck 5.89108 -23.7749 -15.0673
upperneck 21.5794 -38.8897 20.4061
head 13.7597 -18.0671 3.73782
rclavicle 1.70955e-014 4.37326e-015
rhumerus -36.1845 37.0117 -97.3301
rradius 94.0982
rwrist 1.85383
rhand -16.4488 8.41028
rfingers 7.12502
rthumb 9.76722 -21.3432
lclavicle 1.70955e-014 4.37326e-015
lhumerus -37.3529 -31.3021 101.329
lradius 90.1973
lwrist -0.388983
lhand -15.7115 35.8271
lfingers 7.12502
lthumb 10.4784 65.546
rfemur -23.415 5.79879 16.5616
rtibia 29.917
rfoot -5.4513 4.81949
rtoes 5.39673
lfemur 8.15794 2.23519 -21.6057
ltibia 16.5227
lfoot -11.849 -2.87579
ltoes -13.8894
659
root -1.11081 17.8325 -0.168571 -1.61023 21.3899 1.83833
lowerback 10.9514 -6.30709 -10.228
upperback -0.320456 -9.5549 2.77139
thorax -4.29779 -4.49236 9.8987
lowerneck 5.78583 -23.8136 -15.0756
upperneck 21.666 -38.9812 20.4326
head 13.8475 -18.0885 3.70237
rclavicle 4.2689e-014 2.70347e-014
rhumerus -35.9411 37.5665 -97.4801
rradius 93.8011
rwrist 1.53728
rhand -17.0089 8.11548
rfingers 7.12502
rthumb 9.22679 -21.6626
lclavicle 4.2689e-014 2.70347e-014
lhumerus -37.5457 -31.7761 101.378
lradius 90.2717
lwrist 0.899984
lhand -17.509 35.033
lfingers 7.12502
lthumb 8.74413 64.8319
rfemur -23.4541 5.53206 16.671
rtibia 30.2847
rfoot -6.23215 4.64904
rtoes 2.54296
lfemur 7.82354 2.20821 -21.5416
ltibia 16.626
lfoot -11.8069 -2.75193
ltoes -13.905
